<svg xmlns="http://www.w3.org/2000/svg" xmlns:xlink="http://www.w3.org/1999/xlink" width="250" zoomAndPan="magnify" viewBox="0 0 187.5 60" height="80" preserveAspectRatio="xMidYMid meet" version="1.0"><defs><g/><clipPath id="id1"><path d="M 3.535156 40 L 35.035156 40 L 35.035156 46.933594 L 3.535156 46.933594 Z M 3.535156 40 " clip-rule="nonzero"/></clipPath><clipPath id="id2"><path d="M 6 12.433594 L 35.035156 12.433594 L 35.035156 43 L 6 43 Z M 6 12.433594 " clip-rule="nonzero"/></clipPath></defs><g clip-path="url(#id1)"><path fill="#ffffff" d="M 53.402344 40.820312 L 4.671875 40.820312 C 4.035156 40.820312 3.609375 41.242188 3.609375 41.875 C 3.609375 44.71875 5.941406 46.933594 8.695312 46.933594 L 49.375 46.933594 C 52.238281 46.933594 54.460938 44.617188 54.460938 41.875 C 54.460938 41.347656 54.039062 40.820312 53.402344 40.820312 Z M 53.402344 40.820312 " fill-opacity="1" fill-rule="nonzero"/></g><path fill="#ffffff" d="M 32.320312 29.652344 L 29.566406 29.859375 L 30.835938 32.707031 L 29.777344 33.234375 L 28.507812 30.28125 L 26.492188 32.074219 L 26.492188 24.171875 Z M 32.320312 29.652344 " fill-opacity="1" fill-rule="nonzero"/><g clip-path="url(#id2)"><path fill="#ffffff" d="M 47.363281 12.472656 L 10.707031 12.472656 C 8.378906 12.472656 6.578125 14.265625 6.578125 16.582031 L 6.578125 38.820312 C 6.578125 41.136719 8.378906 42.929688 10.707031 42.929688 L 47.363281 42.929688 C 49.695312 42.929688 51.496094 41.136719 51.496094 38.820312 L 51.496094 16.582031 C 51.496094 14.261719 49.695312 12.472656 47.363281 12.472656 Z M 47.363281 37.871094 C 47.363281 38.503906 46.941406 38.925781 46.304688 38.925781 L 11.769531 38.925781 C 11.132812 38.925781 10.707031 38.503906 10.707031 37.871094 L 10.707031 17.636719 C 10.707031 17.003906 11.132812 16.582031 11.769531 16.582031 L 46.304688 16.582031 C 46.941406 16.582031 47.363281 17.003906 47.363281 17.636719 Z M 47.363281 37.871094 " fill-opacity="1" fill-rule="nonzero"/></g><g fill="#ffffff" fill-opacity="1"><g transform="translate(37.171461, 32.144722)"><g><path d="M 1.359375 0 L 6.15625 0 C 10.574219 0 13.523438 -2.550781 13.523438 -6.683594 C 13.523438 -10.820312 10.558594 -13.371094 6.15625 -13.371094 L 1.359375 -13.371094 Z M 3.664062 -1.851562 L 3.664062 -11.539062 L 6.15625 -11.539062 C 9.101562 -11.539062 11.140625 -9.707031 11.140625 -6.683594 C 11.140625 -3.664062 9.140625 -1.851562 6.15625 -1.851562 Z M 3.664062 -1.851562 "/></g></g></g><g fill="#ffffff" fill-opacity="1"><g transform="translate(51.52301, 32.144722)"><g><path d="M 2.378906 -11.140625 C 3.152344 -11.140625 3.71875 -11.671875 3.71875 -12.425781 C 3.71875 -13.183594 3.152344 -13.710938 2.378906 -13.710938 C 1.625 -13.710938 1.058594 -13.183594 1.058594 -12.425781 C 1.058594 -11.671875 1.625 -11.140625 2.378906 -11.140625 Z M 1.304688 0 L 3.457031 0 L 3.457031 -9.59375 L 1.304688 -9.59375 Z M 1.304688 0 "/></g></g></g><g fill="#ffffff" fill-opacity="1"><g transform="translate(56.281678, 32.144722)"><g><path d="M 5.988281 4.644531 C 9.007812 4.644531 11.027344 2.8125 11.027344 -0.0195312 L 11.027344 -9.59375 L 8.96875 -9.59375 L 8.96875 -7.835938 L 8.820312 -7.835938 C 8.101562 -9.121094 6.875 -9.894531 5.230469 -9.894531 C 2.550781 -9.894531 0.679688 -7.914062 0.679688 -4.796875 C 0.679688 -1.792969 2.550781 0.226562 5.25 0.226562 C 6.816406 0.226562 8.007812 -0.527344 8.742188 -1.738281 L 8.894531 -1.738281 L 8.894531 -0.09375 C 8.894531 1.699219 7.667969 2.964844 5.890625 2.964844 C 4.304688 2.964844 3.058594 2.039062 2.851562 0.738281 L 0.773438 0.980469 C 1.078125 3.230469 3.152344 4.644531 5.988281 4.644531 Z M 5.890625 -1.546875 C 4.117188 -1.546875 2.8125 -2.910156 2.8125 -4.796875 C 2.8125 -6.703125 4.078125 -8.0625 5.890625 -8.0625 C 7.667969 -8.0625 8.96875 -6.703125 8.96875 -4.796875 C 8.96875 -2.910156 7.6875 -1.546875 5.890625 -1.546875 Z M 5.890625 -1.546875 "/></g></g></g><g fill="#ffffff" fill-opacity="1"><g transform="translate(68.55603, 32.144722)"><g><path d="M 2.378906 -11.140625 C 3.152344 -11.140625 3.71875 -11.671875 3.71875 -12.425781 C 3.71875 -13.183594 3.152344 -13.710938 2.378906 -13.710938 C 1.625 -13.710938 1.058594 -13.183594 1.058594 -12.425781 C 1.058594 -11.671875 1.625 -11.140625 2.378906 -11.140625 Z M 1.304688 0 L 3.457031 0 L 3.457031 -9.59375 L 1.304688 -9.59375 Z M 1.304688 0 "/></g></g></g><g fill="#ffffff" fill-opacity="1"><g transform="translate(73.314699, 32.144722)"><g><path d="M 4.683594 0.207031 C 5.230469 0.207031 5.949219 0.113281 6.441406 -0.0585938 L 6.441406 -1.625 C 6.101562 -1.53125 5.648438 -1.472656 5.308594 -1.472656 C 4.511719 -1.472656 4.003906 -2.058594 4.003906 -2.925781 L 3.984375 -8.007812 L 6.308594 -8.007812 L 6.308594 -9.59375 L 3.984375 -9.59375 L 4.003906 -12.539062 L 2.265625 -12.539062 L 1.925781 -9.59375 L 0.378906 -9.59375 L 0.378906 -8.007812 L 1.851562 -8.007812 L 1.851562 -2.851562 C 1.851562 -1.019531 2.964844 0.207031 4.683594 0.207031 Z M 4.683594 0.207031 "/></g></g></g><g fill="#ffffff" fill-opacity="1"><g transform="translate(80.263872, 32.144722)"><g><path d="M 4.910156 0 L 7.269531 0 L 7.269531 -5.023438 L 11.839844 -13.371094 L 9.308594 -13.371094 L 6.15625 -7.214844 L 6.003906 -7.214844 L 2.777344 -13.371094 L 0.285156 -13.371094 L 4.910156 -5.023438 Z M 4.910156 0 "/></g></g></g><g fill="#ffffff" fill-opacity="1"><g transform="translate(92.368271, 32.144722)"><g><path d="M 5.875 0.300781 C 8.988281 0.300781 11.105469 -1.71875 11.105469 -4.796875 C 11.105469 -7.875 8.988281 -9.894531 5.875 -9.894531 C 2.757812 -9.894531 0.660156 -7.894531 0.660156 -4.796875 C 0.660156 -1.71875 2.777344 0.300781 5.875 0.300781 Z M 5.875 -1.53125 C 4.078125 -1.53125 2.796875 -2.890625 2.796875 -4.796875 C 2.796875 -6.703125 4.078125 -8.0625 5.875 -8.0625 C 7.6875 -8.0625 8.96875 -6.703125 8.96875 -4.796875 C 8.96875 -2.890625 7.6875 -1.53125 5.875 -1.53125 Z M 5.875 -1.53125 "/></g></g></g><g fill="#ffffff" fill-opacity="1"><g transform="translate(104.113878, 32.144722)"><g><path d="M 4.722656 0.300781 C 6.101562 0.300781 7.175781 -0.398438 7.855469 -1.644531 L 8.007812 -1.644531 L 8.007812 0 L 10.160156 0 L 10.160156 -9.59375 L 8.007812 -9.59375 L 8.007812 -4.097656 C 8.007812 -2.605469 6.910156 -1.53125 5.535156 -1.53125 C 4.117188 -1.53125 3.230469 -2.625 3.230469 -4.171875 L 3.230469 -9.59375 L 1.078125 -9.59375 L 1.078125 -3.816406 C 1.078125 -1.433594 2.53125 0.300781 4.722656 0.300781 Z M 4.722656 0.300781 "/></g></g></g><g fill="#ffffff" fill-opacity="1"><g transform="translate(115.519579, 32.144722)"><g><path d="M 1.246094 0 L 3.378906 0 L 3.378906 -5.042969 C 3.378906 -6.78125 4.269531 -7.933594 5.628906 -7.933594 C 6.101562 -7.933594 6.683594 -7.800781 7.214844 -7.535156 L 7.214844 -9.519531 C 6.835938 -9.6875 6.382812 -9.78125 5.949219 -9.78125 C 4.796875 -9.78125 3.984375 -9.121094 3.53125 -8.027344 L 3.378906 -8.027344 L 3.378906 -9.59375 L 1.246094 -9.59375 Z M 1.246094 0 "/></g></g></g><g fill="#ffffff" fill-opacity="1"><g transform="translate(123.167445, 32.144722)"><g><path d="M 1.359375 0 L 6.15625 0 C 10.574219 0 13.523438 -2.550781 13.523438 -6.683594 C 13.523438 -10.820312 10.558594 -13.371094 6.15625 -13.371094 L 1.359375 -13.371094 Z M 3.664062 -1.851562 L 3.664062 -11.539062 L 6.15625 -11.539062 C 9.101562 -11.539062 11.140625 -9.707031 11.140625 -6.683594 C 11.140625 -3.664062 9.140625 -1.851562 6.15625 -1.851562 Z M 3.664062 -1.851562 "/></g></g></g><g fill="#ffffff" fill-opacity="1"><g transform="translate(137.518993, 32.144722)"><g><path d="M 1.246094 0 L 3.378906 0 L 3.378906 -5.042969 C 3.378906 -6.78125 4.269531 -7.933594 5.628906 -7.933594 C 6.101562 -7.933594 6.683594 -7.800781 7.214844 -7.535156 L 7.214844 -9.519531 C 6.835938 -9.6875 6.382812 -9.78125 5.949219 -9.78125 C 4.796875 -9.78125 3.984375 -9.121094 3.53125 -8.027344 L 3.378906 -8.027344 L 3.378906 -9.59375 L 1.246094 -9.59375 Z M 1.246094 0 "/></g></g></g><g fill="#ffffff" fill-opacity="1"><g transform="translate(145.166852, 32.144722)"><g><path d="M 5.96875 0.300781 C 8.273438 0.300781 10.273438 -0.945312 10.800781 -2.796875 L 8.914062 -3.097656 C 8.515625 -2.019531 7.363281 -1.246094 6.0625 -1.246094 C 4.285156 -1.246094 3.023438 -2.4375 2.871094 -4.210938 L 11.105469 -4.210938 L 11.125 -4.796875 C 11.125 -7.835938 9.046875 -9.894531 5.988281 -9.894531 C 2.871094 -9.894531 0.679688 -7.855469 0.679688 -4.816406 C 0.679688 -1.757812 2.851562 0.300781 5.96875 0.300781 Z M 2.851562 -5.457031 C 3.023438 -7.175781 4.230469 -8.367188 5.949219 -8.367188 C 7.609375 -8.367188 8.839844 -7.121094 8.953125 -5.457031 Z M 2.851562 -5.457031 "/></g></g></g><g fill="#ffffff" fill-opacity="1"><g transform="translate(156.950231, 32.144722)"><g><path d="M 3.777344 0.300781 C 5.269531 0.300781 6.609375 -0.300781 7.234375 -1.492188 L 7.363281 -1.492188 L 7.363281 0 L 9.519531 0 L 9.519531 -6.269531 C 9.519531 -8.386719 7.800781 -9.820312 5.324219 -9.820312 C 2.796875 -9.820312 1.078125 -8.421875 1.078125 -6.402344 L 3.152344 -6.402344 C 3.152344 -7.574219 4.042969 -8.386719 5.308594 -8.386719 C 6.535156 -8.386719 7.363281 -7.535156 7.363281 -6.34375 L 7.363281 -5.835938 L 4.984375 -5.457031 C 1.964844 -4.984375 0.625 -3.984375 0.625 -2.265625 C 0.625 -0.640625 1.886719 0.300781 3.777344 0.300781 Z M 4.53125 -1.09375 C 3.378906 -1.09375 2.699219 -1.605469 2.699219 -2.4375 C 2.699219 -3.324219 3.378906 -3.910156 5.117188 -4.210938 L 7.363281 -4.589844 L 7.363281 -3.757812 C 7.363281 -2.226562 6.230469 -1.09375 4.53125 -1.09375 Z M 4.53125 -1.09375 "/></g></g></g><g fill="#ffffff" fill-opacity="1"><g transform="translate(167.562817, 32.144722)"><g><path d="M 1.246094 0 L 3.378906 0 L 3.378906 -5.609375 C 3.378906 -7.101562 4.269531 -8.0625 5.609375 -8.0625 C 6.875 -8.0625 7.722656 -7.101562 7.722656 -5.609375 L 7.722656 0 L 9.875 0 L 9.875 -5.609375 C 9.875 -7.082031 10.765625 -8.0625 12.125 -8.0625 C 13.445312 -8.046875 14.277344 -7.042969 14.277344 -5.609375 L 14.277344 0 L 16.429688 0 L 16.429688 -6.042969 C 16.429688 -8.347656 14.996094 -9.894531 12.898438 -9.894531 C 11.292969 -9.894531 10.179688 -9.066406 9.726562 -7.742188 L 9.59375 -7.742188 C 9.179688 -9.046875 7.988281 -9.894531 6.496094 -9.894531 C 5.136719 -9.894531 4.058594 -9.160156 3.53125 -8.027344 L 3.378906 -8.027344 L 3.378906 -9.59375 L 1.246094 -9.59375 Z M 1.246094 0 "/></g></g></g><g fill="#ffffff" fill-opacity="1"><g transform="translate(58.576084, 45.555071)"><g><path d="M 4.359375 -2.265625 C 4.359375 -1.804688 4.269531 -1.40625 4.09375 -1.0625 C 3.914062 -0.71875 3.660156 -0.453125 3.328125 -0.265625 C 3.003906 -0.0859375 2.625 0 2.1875 0 L 0.53125 0 L 0.53125 -4.453125 L 2 -4.453125 C 2.757812 -4.453125 3.34375 -4.257812 3.75 -3.875 C 4.15625 -3.5 4.359375 -2.960938 4.359375 -2.265625 Z M 3.75 -2.265625 C 3.75 -2.816406 3.597656 -3.238281 3.296875 -3.53125 C 2.992188 -3.820312 2.554688 -3.96875 1.984375 -3.96875 L 1.140625 -3.96875 L 1.140625 -0.484375 L 2.125 -0.484375 C 2.445312 -0.484375 2.734375 -0.550781 2.984375 -0.6875 C 3.234375 -0.832031 3.421875 -1.039062 3.546875 -1.3125 C 3.679688 -1.582031 3.75 -1.898438 3.75 -2.265625 Z M 3.75 -2.265625 "/></g></g></g><g fill="#ffffff" fill-opacity="1"><g transform="translate(67.00872, 45.555071)"><g><path d="M 0.53125 0 L 0.53125 -4.453125 L 3.90625 -4.453125 L 3.90625 -3.953125 L 1.140625 -3.953125 L 1.140625 -2.53125 L 3.71875 -2.53125 L 3.71875 -2.046875 L 1.140625 -2.046875 L 1.140625 -0.5 L 4.03125 -0.5 L 4.03125 0 Z M 0.53125 0 "/></g></g></g><g fill="#ffffff" fill-opacity="1"><g transform="translate(75.084047, 45.555071)"><g><path d="M 2.46875 0 L 1.84375 0 L 0.03125 -4.453125 L 0.65625 -4.453125 L 1.890625 -1.3125 L 2.15625 -0.53125 L 2.421875 -1.3125 L 3.65625 -4.453125 L 4.28125 -4.453125 Z M 2.46875 0 "/></g></g></g><g fill="#ffffff" fill-opacity="1"><g transform="translate(83.159373, 45.555071)"><g><path d="M 0.53125 0 L 0.53125 -4.453125 L 3.90625 -4.453125 L 3.90625 -3.953125 L 1.140625 -3.953125 L 1.140625 -2.53125 L 3.71875 -2.53125 L 3.71875 -2.046875 L 1.140625 -2.046875 L 1.140625 -0.5 L 4.03125 -0.5 L 4.03125 0 Z M 0.53125 0 "/></g></g></g><g fill="#ffffff" fill-opacity="1"><g transform="translate(91.2347, 45.555071)"><g><path d="M 0.53125 0 L 0.53125 -4.453125 L 1.140625 -4.453125 L 1.140625 -0.5 L 3.390625 -0.5 L 3.390625 0 Z M 0.53125 0 "/></g></g></g><g fill="#ffffff" fill-opacity="1"><g transform="translate(98.592245, 45.555071)"><g><path d="M 4.71875 -2.25 C 4.71875 -1.78125 4.628906 -1.367188 4.453125 -1.015625 C 4.273438 -0.671875 4.019531 -0.40625 3.6875 -0.21875 C 3.351562 -0.03125 2.960938 0.0625 2.515625 0.0625 C 2.054688 0.0625 1.660156 -0.03125 1.328125 -0.21875 C 0.992188 -0.40625 0.738281 -0.671875 0.5625 -1.015625 C 0.394531 -1.367188 0.3125 -1.78125 0.3125 -2.25 C 0.3125 -2.957031 0.503906 -3.507812 0.890625 -3.90625 C 1.273438 -4.3125 1.816406 -4.515625 2.515625 -4.515625 C 2.972656 -4.515625 3.363281 -4.425781 3.6875 -4.25 C 4.019531 -4.070312 4.273438 -3.8125 4.453125 -3.46875 C 4.628906 -3.125 4.71875 -2.71875 4.71875 -2.25 Z M 4.109375 -2.25 C 4.109375 -2.800781 3.96875 -3.234375 3.6875 -3.546875 C 3.414062 -3.867188 3.023438 -4.03125 2.515625 -4.03125 C 2.003906 -4.03125 1.609375 -3.875 1.328125 -3.5625 C 1.054688 -3.25 0.921875 -2.8125 0.921875 -2.25 C 0.921875 -1.6875 1.0625 -1.238281 1.34375 -0.90625 C 1.625 -0.582031 2.015625 -0.421875 2.515625 -0.421875 C 3.023438 -0.421875 3.414062 -0.578125 3.6875 -0.890625 C 3.96875 -1.210938 4.109375 -1.664062 4.109375 -2.25 Z M 4.109375 -2.25 "/></g></g></g><g fill="#ffffff" fill-opacity="1"><g transform="translate(107.385353, 45.555071)"><g><path d="M 3.96875 -3.109375 C 3.96875 -2.691406 3.832031 -2.359375 3.5625 -2.109375 C 3.289062 -1.859375 2.914062 -1.734375 2.4375 -1.734375 L 1.140625 -1.734375 L 1.140625 0 L 0.53125 0 L 0.53125 -4.453125 L 2.40625 -4.453125 C 2.90625 -4.453125 3.289062 -4.332031 3.5625 -4.09375 C 3.832031 -3.863281 3.96875 -3.535156 3.96875 -3.109375 Z M 3.359375 -3.109375 C 3.359375 -3.679688 3.015625 -3.96875 2.328125 -3.96875 L 1.140625 -3.96875 L 1.140625 -2.21875 L 2.359375 -2.21875 C 3.023438 -2.21875 3.359375 -2.515625 3.359375 -3.109375 Z M 3.359375 -3.109375 "/></g></g></g><g fill="#ffffff" fill-opacity="1"><g transform="translate(115.460679, 45.555071)"><g><path d="M 3.96875 -3.109375 C 3.96875 -2.691406 3.832031 -2.359375 3.5625 -2.109375 C 3.289062 -1.859375 2.914062 -1.734375 2.4375 -1.734375 L 1.140625 -1.734375 L 1.140625 0 L 0.53125 0 L 0.53125 -4.453125 L 2.40625 -4.453125 C 2.90625 -4.453125 3.289062 -4.332031 3.5625 -4.09375 C 3.832031 -3.863281 3.96875 -3.535156 3.96875 -3.109375 Z M 3.359375 -3.109375 C 3.359375 -3.679688 3.015625 -3.96875 2.328125 -3.96875 L 1.140625 -3.96875 L 1.140625 -2.21875 L 2.359375 -2.21875 C 3.023438 -2.21875 3.359375 -2.515625 3.359375 -3.109375 Z M 3.359375 -3.109375 "/></g></g></g><g fill="#ffffff" fill-opacity="1"><g transform="translate(123.536006, 45.555071)"><g><path d="M 0.53125 0 L 0.53125 -4.453125 L 3.90625 -4.453125 L 3.90625 -3.953125 L 1.140625 -3.953125 L 1.140625 -2.53125 L 3.71875 -2.53125 L 3.71875 -2.046875 L 1.140625 -2.046875 L 1.140625 -0.5 L 4.03125 -0.5 L 4.03125 0 Z M 0.53125 0 "/></g></g></g><g fill="#ffffff" fill-opacity="1"><g transform="translate(131.611332, 45.555071)"><g><path d="M 4.3125 0 L 4.3125 -2.96875 C 4.3125 -3.300781 4.320312 -3.617188 4.34375 -3.921875 C 4.238281 -3.535156 4.144531 -3.238281 4.0625 -3.03125 L 2.921875 0 L 2.484375 0 L 1.328125 -3.03125 L 1.15625 -3.5625 L 1.046875 -3.921875 L 1.0625 -3.5625 L 1.0625 0 L 0.53125 0 L 0.53125 -4.453125 L 1.328125 -4.453125 L 2.515625 -1.359375 C 2.554688 -1.234375 2.59375 -1.097656 2.625 -0.953125 C 2.664062 -0.816406 2.691406 -0.71875 2.703125 -0.65625 C 2.722656 -0.738281 2.757812 -0.863281 2.8125 -1.03125 C 2.863281 -1.207031 2.898438 -1.316406 2.921875 -1.359375 L 4.078125 -4.453125 L 4.859375 -4.453125 L 4.859375 0 Z M 4.3125 0 "/></g></g></g><g fill="#ffffff" fill-opacity="1"><g transform="translate(140.76175, 45.555071)"><g><path d="M 0.53125 0 L 0.53125 -4.453125 L 3.90625 -4.453125 L 3.90625 -3.953125 L 1.140625 -3.953125 L 1.140625 -2.53125 L 3.71875 -2.53125 L 3.71875 -2.046875 L 1.140625 -2.046875 L 1.140625 -0.5 L 4.03125 -0.5 L 4.03125 0 Z M 0.53125 0 "/></g></g></g><g fill="#ffffff" fill-opacity="1"><g transform="translate(148.837076, 45.555071)"><g><path d="M 3.421875 0 L 1.03125 -3.796875 L 1.046875 -3.484375 L 1.0625 -2.953125 L 1.0625 0 L 0.53125 0 L 0.53125 -4.453125 L 1.234375 -4.453125 L 3.640625 -0.640625 C 3.609375 -1.046875 3.59375 -1.34375 3.59375 -1.53125 L 3.59375 -4.453125 L 4.140625 -4.453125 L 4.140625 0 Z M 3.421875 0 "/></g></g></g><g fill="#ffffff" fill-opacity="1"><g transform="translate(157.269712, 45.555071)"><g><path d="M 2.28125 -3.953125 L 2.28125 0 L 1.671875 0 L 1.671875 -3.953125 L 0.140625 -3.953125 L 0.140625 -4.453125 L 3.796875 -4.453125 L 3.796875 -3.953125 Z M 2.28125 -3.953125 "/></g></g></g></svg>