<svg xmlns="http://www.w3.org/2000/svg" xmlns:xlink="http://www.w3.org/1999/xlink" width="500" zoomAndPan="magnify" viewBox="0 0 375 374.999991" height="500" preserveAspectRatio="xMidYMid meet" version="1.0"><defs><clipPath id="5a46595e07"><path d="M 103 29.496094 L 359 29.496094 L 359 201 L 103 201 Z M 103 29.496094 " clip-rule="nonzero"/></clipPath><clipPath id="841e8b63d0"><path d="M 6.832031 205 L 367 205 L 367 345.246094 L 6.832031 345.246094 Z M 6.832031 205 " clip-rule="nonzero"/></clipPath></defs><g clip-path="url(#5a46595e07)"><path fill="#000000" d="M 103.832031 132.855469 L 103.832031 156.238281 C 103.832031 159.566406 106.558594 162.289062 109.890625 162.289062 L 158.832031 162.289062 C 158.527344 165.011719 158.378906 167.8125 158.378906 170.613281 L 158.378906 194.824219 C 158.378906 198.15625 161.105469 200.878906 164.4375 200.878906 L 297.773438 200.878906 C 301.105469 200.878906 303.832031 198.15625 303.832031 194.824219 L 303.832031 170.613281 C 303.832031 167.8125 303.679688 165.011719 303.378906 162.289062 L 352.320312 162.289062 C 355.652344 162.289062 358.378906 159.566406 358.378906 156.238281 L 358.378906 132.855469 C 358.378906 110.082031 343.53125 90.785156 323 83.976562 C 328.757812 78.226562 332.242188 70.28125 332.242188 61.503906 C 332.242188 43.875 317.847656 29.496094 300.195312 29.496094 C 282.921875 29.496094 268.832031 43.191406 268.152344 60.21875 C 263.910156 42.585938 248 29.496094 229.058594 29.496094 C 211.105469 29.496094 195.878906 41.226562 190.648438 57.492188 C 188.679688 41.753906 175.195312 29.496094 158.90625 29.496094 C 141.253906 29.496094 126.863281 43.875 126.863281 61.503906 C 126.863281 70.660156 130.726562 78.980469 137.011719 84.808594 C 117.617188 92.222656 103.832031 110.988281 103.832031 132.855469 Z M 346.257812 132.855469 L 346.257812 150.183594 L 300.878906 150.183594 C 295.5 131.871094 283.074219 116.511719 266.710938 107.28125 C 274.136719 98.578125 285.046875 93.433594 296.710938 93.433594 L 306.863281 93.433594 C 328.605469 93.511719 346.257812 111.140625 346.257812 132.855469 Z M 300.195312 41.605469 C 311.179688 41.605469 320.121094 50.53125 320.121094 61.503906 C 320.121094 72.476562 311.179688 81.402344 300.195312 81.402344 C 289.210938 81.402344 280.273438 72.476562 280.273438 61.503906 C 280.273438 50.53125 289.210938 41.605469 300.195312 41.605469 Z M 269.363281 70.128906 C 270.953125 75.804688 274.058594 80.875 278.300781 84.808594 C 269.289062 88.289062 261.332031 94.191406 255.421875 102.136719 C 254.894531 101.910156 254.363281 101.757812 253.832031 101.605469 C 263.152344 94.265625 269.289062 82.917969 269.363281 70.128906 Z M 229.058594 41.605469 C 244.589844 41.605469 257.316406 54.238281 257.316406 69.828125 C 257.316406 85.414062 244.664062 98.050781 229.058594 98.050781 C 213.453125 98.050781 200.800781 85.339844 200.800781 69.828125 C 200.800781 54.316406 213.453125 41.605469 229.058594 41.605469 Z M 231.105469 110.082031 C 264.515625 110.082031 291.710938 137.246094 291.710938 170.613281 L 291.710938 188.773438 L 170.5 188.773438 L 170.5 170.613281 C 170.5 137.246094 197.695312 110.082031 231.105469 110.082031 Z M 188.832031 72.777344 C 189.285156 79.058594 191.179688 84.960938 194.210938 90.105469 C 190.347656 87.457031 186.105469 85.414062 181.636719 83.976562 C 184.742188 80.796875 187.242188 77.015625 188.832031 72.777344 Z M 158.832031 41.605469 C 169.816406 41.605469 178.757812 50.53125 178.757812 61.503906 C 178.757812 72.476562 169.816406 81.402344 158.832031 81.402344 C 147.847656 81.402344 138.90625 72.476562 138.90625 61.503906 C 138.90625 50.53125 147.847656 41.605469 158.832031 41.605469 Z M 155.347656 93.511719 L 165.5 93.511719 C 177.164062 93.511719 188 98.578125 195.5 107.355469 C 179.136719 116.589844 166.710938 131.949219 161.332031 150.257812 L 115.953125 150.257812 L 115.953125 132.929688 C 115.953125 111.140625 133.605469 93.511719 155.347656 93.511719 Z M 155.347656 93.511719 " fill-opacity="1" fill-rule="nonzero"/></g><g clip-path="url(#841e8b63d0)"><path fill="#000000" d="M 63.222656 205.039062 L 12.921875 205.039062 C 9.585938 205.039062 6.859375 207.765625 6.859375 211.09375 L 6.859375 323.078125 C 6.859375 326.40625 9.585938 329.128906 12.921875 329.128906 L 63.222656 329.128906 C 66.558594 329.128906 69.285156 326.40625 69.285156 323.078125 L 69.285156 313.46875 L 93.527344 313.46875 L 165.421875 336.242188 C 181.710938 342.296875 195.421875 345.246094 209.058594 345.246094 C 222.773438 345.246094 236.484375 342.222656 252.847656 336.167969 C 253.453125 335.941406 254.058594 335.636719 254.589844 335.183594 L 359.894531 249.378906 C 360.195312 249.078125 360.5 248.773438 360.804688 248.472656 C 368.304688 239.164062 367.925781 224.941406 359.894531 216.085938 C 351.941406 207.234375 339.136719 206.328125 330.195312 214.042969 L 277.621094 256.492188 C 277.621094 255.960938 277.621094 255.433594 277.621094 254.902344 C 277.394531 242.265625 267.46875 231.902344 255.421875 231.902344 L 197.015625 231.902344 C 193.679688 231.902344 190.5 229.933594 188.527344 226.679688 C 188.074219 226 187.542969 225.394531 186.863281 224.863281 C 162.089844 206.933594 130.800781 203.527344 103.300781 215.785156 L 93.148438 220.324219 L 69.285156 220.324219 L 69.285156 211.09375 C 69.285156 207.765625 66.632812 205.039062 63.222656 205.039062 Z M 37.164062 307.945312 C 33.832031 307.945312 31.101562 305.222656 31.101562 301.890625 C 31.101562 298.5625 33.832031 295.839844 37.164062 295.839844 C 40.496094 295.839844 43.222656 298.5625 43.222656 301.890625 C 43.222656 305.222656 40.496094 307.945312 37.164062 307.945312 Z M 57.164062 226.453125 L 57.164062 317.023438 L 47.238281 317.023438 C 52.089844 313.769531 55.34375 308.246094 55.34375 301.890625 C 55.34375 291.902344 47.164062 283.730469 37.164062 283.730469 C 27.164062 283.730469 18.980469 291.902344 18.980469 301.890625 C 18.980469 308.171875 22.238281 313.769531 27.085938 317.023438 L 18.980469 317.023438 L 18.980469 217.148438 L 57.164062 217.148438 Z M 94.511719 232.507812 C 95.347656 232.507812 96.179688 232.355469 96.9375 231.976562 L 108.300781 226.90625 C 131.484375 216.617188 157.769531 219.339844 178.90625 234.09375 C 183.148438 240.375 189.816406 244.007812 197.089844 244.007812 L 255.5 244.007812 C 260.953125 244.007812 265.5 249 265.574219 255.054688 C 265.652344 258.460938 264.4375 261.636719 262.242188 263.832031 C 261.179688 264.890625 259.894531 265.722656 258.605469 266.175781 C 256.863281 266.480469 255.121094 266.632812 253.378906 266.632812 L 188.378906 266.632812 C 185.042969 266.632812 182.316406 269.355469 182.316406 272.683594 C 182.316406 276.015625 185.042969 278.738281 188.378906 278.738281 L 256.105469 278.738281 C 257.921875 278.738281 259.742188 278.511719 261.484375 278.058594 C 269.058594 276.695312 276.179688 273.367188 282.46875 268.371094 L 338.074219 223.425781 C 338.152344 223.351562 338.152344 223.351562 338.226562 223.277344 C 342.167969 219.871094 347.546875 220.324219 351.105469 224.183594 C 355.046875 228.496094 355.347656 235.683594 351.863281 240.453125 L 247.921875 325.195312 C 218.527344 335.941406 199.363281 335.789062 169.742188 324.816406 C 169.664062 324.816406 169.589844 324.742188 169.4375 324.742188 L 96.558594 301.589844 C 95.953125 301.4375 95.347656 301.285156 94.738281 301.285156 L 69.285156 301.285156 L 69.285156 232.429688 L 94.511719 232.429688 Z M 94.511719 232.507812 " fill-opacity="1" fill-rule="nonzero"/></g></svg>